<svg width="477" height="442" viewBox="0 0 477 442" fill="none" xmlns="http://www.w3.org/2000/svg">
<path d="M42.2824 69.6068L42.2822 69.6076C36.9512 88.504 40.4315 110.215 57.2781 128.242L53.625 131.656L57.2782 128.242C72.4217 144.448 78.5393 159.248 79.1816 171.903L79.1816 171.903C79.8247 184.597 75.0905 195.038 67.4183 203.025C59.7829 210.976 49.4115 215.976 39.0648 217.355C30.3694 218.514 21.3438 217.143 13.9599 212.415L8.07038 218.967C27.7777 232.828 56.3105 227.146 73.6757 209.069C82.752 199.618 88.6414 186.433 87.8814 171.473L87.8814 171.472C87.1203 156.471 79.816 139.61 63.6279 122.288L63.6275 122.288C56.0706 114.2 51.5508 105.861 49.5961 97.2766C47.644 88.7031 48.327 80.222 50.6576 71.9553L50.6576 71.9552C55.3384 55.3531 67.8564 39.421 82.7975 28.663L42.2824 69.6068ZM42.2824 69.6068C47.6875 50.4352 61.1911 33.5126 77.7019 21.6204M42.2824 69.6068L77.7019 21.6204M129.698 14.3381L129.699 14.3383C135.054 15.1634 140.227 16.9007 144.887 20.2045C148.321 22.6395 151.331 25.8216 153.899 29.8532L161.041 25.7354C153.408 14.1779 142.611 7.53817 131.02 5.75379C128.802 5.41292 126.57 5.2091 124.35 5.15453L129.698 14.3381ZM129.698 14.3381C115.46 12.1478 97.6819 17.9411 82.7985 28.6623L129.698 14.3381ZM77.7019 21.6204C91.2567 11.859 106.558 5.58679 121.361 5.1549L77.7019 21.6204ZM186.781 75.42L186.781 75.42C166.88 86.9113 149.584 101.189 135.086 117.486L116.204 84.7671L227.669 20.3944L246.078 52.3021C225.745 56.8148 205.757 64.4635 186.781 75.42ZM289.579 75.9688L290.508 75.9597C353.142 75.6449 414.044 108.014 447.608 166.155C497.448 252.49 467.887 362.689 381.438 412.605C294.986 462.523 184.764 433.052 134.925 346.718L130.595 349.218L134.925 346.718C85.0836 260.382 114.671 150.186 201.125 100.266C228.151 84.6616 257.49 76.8088 286.57 76.0273C287.591 76.0014 288.596 75.9784 289.579 75.9688ZM121.391 5.15405C122.358 5.12699 123.346 5.13017 124.348 5.1545L121.391 5.15405Z" fill="white" fill-opacity="0.8" stroke="black" stroke-width="10"/>
</svg>
